<svg width="640" height="160" viewBox="0 0 640 160" fill="none" xmlns="http://www.w3.org/2000/svg">
  <defs>
    <linearGradient id="g" x1="0" y1="0" x2="1" y2="1">
      <stop offset="0%" stop-color="#4f46e5"/>
      <stop offset="50%" stop-color="#06b6d4"/>
      <stop offset="100%" stop-color="#22c55e"/>
    </linearGradient>
    <filter id="shadow" x="-20%" y="-20%" width="140%" height="140%">
      <feDropShadow dx="0" dy="6" stdDeviation="8" flood-color="#000" flood-opacity="0.15"/>
    </filter>
  </defs>

  <!-- Abstract chat + ticket mark -->
  <g filter="url(#shadow)">
    <rect x="20" y="20" rx="24" ry="24" width="120" height="120" fill="url(#g)"/>
    <path d="M60 58c-12 0-22 8.8-22 19.6 0 7.6 5.2 14.2 12.6 17.3l-3.1 11.1 12-7.2c0.8 0.1 1.6 0.1 2.5 0.1 12 0 22-8.8 22-19.7S72 58 60 58z" fill="#ffffff" opacity="0.95"/>
    <path d="M116 56l-28 32-12-12" stroke="#ffffff" stroke-width="8" stroke-linecap="round" stroke-linejoin="round"/>
  </g>

  <!-- Wordmark -->
  <g transform="translate(170, 45)">
    <text x="0" y="38" font-family="'Segoe UI', Roboto, Helvetica, Arial, sans-serif" font-size="44" font-weight="700" fill="#1f2937">Care</text>
    <text x="132" y="38" font-family="'Segoe UI', Roboto, Helvetica, Arial, sans-serif" font-size="44" font-weight="700" fill="url(#g)">Desk</text>
    <text x="0" y="72" font-family="'Segoe UI', Roboto, Helvetica, Arial, sans-serif" font-size="16" fill="#6b7280">Multi‑Tenant Support Ticket System</text>
  </g>
</svg>


